<svg xmlns="http://www.w3.org/2000/svg" width="600" height="600" viewBox="0 0 600 600" fill="none">
  <rect width="600" height="600" rx="36" fill="#ffffff"/>
  <rect x="28" y="28" width="544" height="544" rx="28" stroke="#16a34a" stroke-width="8"/>
  <rect x="70" y="70" width="140" height="140" fill="#052e16"/>
  <rect x="95" y="95" width="90" height="90" fill="#ffffff"/>
  <rect x="390" y="70" width="140" height="140" fill="#052e16"/>
  <rect x="415" y="95" width="90" height="90" fill="#ffffff"/>
  <rect x="70" y="390" width="140" height="140" fill="#052e16"/>
  <rect x="95" y="415" width="90" height="90" fill="#ffffff"/>

  <!-- Fake QR modules -->
  <g fill="#052e16" opacity="0.92">
    <rect x="250" y="90" width="18" height="18"/>
    <rect x="286" y="90" width="18" height="18"/>
    <rect x="322" y="90" width="18" height="18"/>
    <rect x="250" y="126" width="18" height="18"/>
    <rect x="322" y="126" width="18" height="18"/>
    <rect x="250" y="162" width="18" height="18"/>
    <rect x="286" y="162" width="18" height="18"/>
    <rect x="322" y="162" width="18" height="18"/>

    <rect x="250" y="250" width="18" height="18"/>
    <rect x="268" y="250" width="18" height="18"/>
    <rect x="304" y="250" width="18" height="18"/>
    <rect x="340" y="250" width="18" height="18"/>
    <rect x="250" y="286" width="18" height="18"/>
    <rect x="286" y="286" width="18" height="18"/>
    <rect x="322" y="286" width="18" height="18"/>
    <rect x="358" y="286" width="18" height="18"/>
    <rect x="250" y="322" width="18" height="18"/>
    <rect x="304" y="322" width="18" height="18"/>
    <rect x="340" y="322" width="18" height="18"/>
    <rect x="376" y="322" width="18" height="18"/>

    <rect x="250" y="410" width="18" height="18"/>
    <rect x="286" y="410" width="18" height="18"/>
    <rect x="322" y="410" width="18" height="18"/>
    <rect x="358" y="410" width="18" height="18"/>
    <rect x="394" y="410" width="18" height="18"/>
    <rect x="250" y="446" width="18" height="18"/>
    <rect x="322" y="446" width="18" height="18"/>
    <rect x="394" y="446" width="18" height="18"/>
    <rect x="250" y="482" width="18" height="18"/>
    <rect x="286" y="482" width="18" height="18"/>
    <rect x="322" y="482" width="18" height="18"/>
    <rect x="358" y="482" width="18" height="18"/>
    <rect x="394" y="482" width="18" height="18"/>
  </g>

  <text x="300" y="565" text-anchor="middle" fill="#15803d" font-family="system-ui, -apple-system, Segoe UI, Roboto" font-size="18">
    Replace with your bank/UPI QR
  </text>
</svg>
